# xmcd
#
# Track frame offsets:
# 150
# 3729
# 21161
# 44249
# 68558
# 88623
# 104606
# 132718
# 150956
# 168365
# 182214
# 192954
# 202787
#
# Disc length: 3690 seconds
#
#
# Revision: 8
# Processed by: cddbd v1.5PL3 Copyright (c) Steve Scherf et al.
# Submitted via: FreeRIP 2.70 
#
DISCID=b00e680d
DTITLE=Limp Bizkit - Three Dollar Bill, Yall$
DYEAR=1997
DGENRE=Hard Rock
TTITLE0=Intro
TTITLE1=Pollution
TTITLE2=Counterfeit
TTITLE3=Stuck
TTITLE4=Nobody Love's Me
TTITLE5=Sour
TTITLE6=Stalemate
TTITLE7=Clunk
TTITLE8=Faith
TTITLE9=StinkFinger
TTITLE10=Indigo Flow
TTITLE11=Leech
TTITLE12=Everything
EXTD=YEAR: 1997  ID3G:  79
EXTT0=
EXTT1=
EXTT2=
EXTT3=
EXTT4=
EXTT5=
EXTT6=
EXTT7=
EXTT8=
EXTT9=
EXTT10=
EXTT11=
EXTT12=
PLAYORDER=
